<?xml version="1.0" encoding="UTF-8"?>
<svg version="1.1" xmlns="http://www.w3.org/2000/svg" width="242" height="71">
<path d="M0 0 C5.94 0 11.88 0 18 0 C18.99 3.465 18.99 3.465 20 7 C26.4489191 8.31909709 32.48755792 7.69508823 39 7 C39 6.34 39 5.68 39 5 C39.66 5 40.32 5 41 5 C41.33 4.01 41.66 3.02 42 2 C44.31 2 46.62 2 49 2 C49 2.66 49 3.32 49 4 C49.66 4 50.32 4 51 4 C51.33 5.32 51.66 6.64 52 8 C54.16874252 7.49396008 55.99967627 7.00016187 58 6 C57.67 4.02 57.34 2.04 57 0 C59.64 0 62.28 0 65 0 C65.33 3.96 65.66 7.92 66 12 C66.33 12 66.66 12 67 12 C67 16.29 67 20.58 67 25 C66.34 25 65.68 25 65 25 C65.99 27.475 65.99 27.475 67 30 C64.4472893 32.5527107 63.41669481 32.29770183 59.875 32.3125 C54.60263383 32.2360889 50.77931925 31.16422004 46 29 C45.34 29.66 44.68 30.32 44 31 C41.0234375 30.9765625 41.0234375 30.9765625 37.375 30.625 C33.34754259 30.26599509 29.41726271 29.93235139 25.375 30.0625 C22.19410199 30.00359448 20.61089326 29.74059551 18 28 C18 27.01 18 26.02 18 25 C17.505 27.475 17.505 27.475 17 30 C14.6875 30.6875 14.6875 30.6875 12 31 C10.34375 29.90625 10.34375 29.90625 9 28 C8.70703125 25.08203125 8.70703125 25.08203125 8.8125 21.8125 C8.85310547 20.18248047 8.85310547 20.18248047 8.89453125 18.51953125 C8.92933594 17.68808594 8.96414062 16.85664062 9 16 C7.68 16 6.36 16 5 16 C5.495 22.435 5.495 22.435 6 29 C4.35 29.66 2.7 30.32 1 31 C-2 29 -2 29 -2.75 26 C-3 23 -3 23 -2 21 C-2.66 20.67 -3.32 20.34 -4 20 C-3.34 20 -2.68 20 -2 20 C-2 18.68 -2 17.36 -2 16 C-2.99 16 -3.98 16 -5 16 C-5 16.99 -5 17.98 -5 19 C-5.66 19.33 -6.32 19.66 -7 20 C-6.814375 20.7425 -6.62875 21.485 -6.4375 22.25 C-5.99476513 25.0329049 -5.77858167 26.46991918 -7 29 C-10.97241977 31.38345186 -13.59580736 30.80893334 -18 30 C-19.4540625 30.2475 -19.4540625 30.2475 -20.9375 30.5 C-27.05101496 31.49812489 -31.68183823 29.98335904 -37 27 C-37 27.66 -37 28.32 -37 29 C-38.47887733 29.33461467 -39.95811058 29.66765667 -41.4375 30 C-42.26121094 30.185625 -43.08492187 30.37125 -43.93359375 30.5625 C-46 31 -46 31 -47 31 C-47.66 32.98 -48.32 34.96 -49 37 C-51.97 37.495 -51.97 37.495 -55 38 C-57.60018816 34.09971775 -57.15085514 30.52565431 -57 26 C-57.495 27.485 -57.495 27.485 -58 29 C-62.05947541 30.84521609 -64.74330727 31.30975161 -69 30 C-69.825 29.62875 -70.65 29.2575 -71.5 28.875 C-74.43439472 27.84796185 -76.05158101 28.15759457 -79 29 C-79.33 29.99 -79.66 30.98 -80 32 C-86.75 31.125 -86.75 31.125 -89 30 C-89.66 30 -90.32 30 -91 30 C-93 30 -93 30 -94.625 28.8125 C-96.43574835 26.42560445 -96.30813578 24.92728993 -96 22 C-95 21 -95 21 -92.0625 20.8125 C-89 21 -89 21 -87 23 C-85.68 23 -84.36 23 -83 23 C-83 22.34 -83 21.68 -83 21 C-84.69099826 19.74164736 -84.69099826 19.74164736 -86.8125 18.5625 C-89.56943033 16.96056781 -91.97594385 15.49654875 -94 13 C-94 12.01 -94 11.02 -94 10 C-92.02 10 -90.04 10 -88 10 C-88 9.34 -88 8.68 -88 8 C-87.34 8 -86.68 8 -86 8 C-85.67 7.01 -85.34 6.02 -85 5 C-85.33 4.67 -85.66 4.34 -86 4 C-86 3.67 -86 3.34 -86 3 C-82.37 3 -78.74 3 -75 3 C-74.67 4.65 -74.34 6.3 -74 8 C-72.35 8 -70.7 8 -69 8 C-68.855625 9.175625 -68.71125 10.35125 -68.5625 11.5625 C-68.08589824 15.38212272 -67.55546456 19.19110019 -67 23 C-66.34 23 -65.68 23 -65 23 C-65.01160156 22.15695313 -65.02320312 21.31390625 -65.03515625 20.4453125 C-65.04417969 19.34960938 -65.05320312 18.25390625 -65.0625 17.125 C-65.07410156 16.03445312 -65.08570312 14.94390625 -65.09765625 13.8203125 C-65 11 -65 11 -64 9 C-59.96196271 8.16191679 -56.94629301 7.87248771 -53 9 C-52.01 8.67 -51.02 8.34 -50 8 C-44.95730917 6.95340379 -41.77341724 7.02077822 -37 9 C-37 9.33 -37 9.66 -37 10 C-34.69 10.33 -32.38 10.66 -30 11 C-29.67 10.01 -29.34 9.02 -29 8 C-27.741875 7.979375 -26.48375 7.95875 -25.1875 7.9375 C-24.47980469 7.92589844 -23.77210938 7.91429687 -23.04296875 7.90234375 C-21 8 -21 8 -18 9 C-15.85744207 8.61067144 -15.85744207 8.61067144 -14 8 C-14 8.66 -14 9.32 -14 10 C-13.46375 9.67 -12.9275 9.34 -12.375 9 C-9.43720283 7.76303277 -7.15845117 7.78943659 -4 8 C-3.505 8.495 -3.505 8.495 -3 9 C-2.01 6.03 -1.02 3.06 0 0 Z M6 6 C5.67 7.32 5.34 8.64 5 10 C5.99 9.67 6.98 9.34 8 9 C8.66 9 9.32 9 10 9 C10 8.01 10 7.02 10 6 C8.68 6 7.36 6 6 6 Z M-85 8 C-85.33 9.32 -85.66 10.64 -86 12 C-83.525 12.99 -83.525 12.99 -81 14 C-80.34 13.34 -79.68 12.68 -79 12 C-79.66 12 -80.32 12 -81 12 C-81 10.68 -81 9.36 -81 8 C-82.32 8 -83.64 8 -85 8 Z M57 8 C56.67 8.66 56.34 9.32 56 10 C56.66 10 57.32 10 58 10 C57.67 9.34 57.34 8.68 57 8 Z M9 10 C10 12 10 12 10 12 Z M-79 11 C-78.01 11.495 -78.01 11.495 -77 12 C-77.04125 12.94875 -77.0825 13.8975 -77.125 14.875 C-77.34973818 18.10244856 -77.34973818 18.10244856 -75 20 C-75 17.03 -75 14.06 -75 11 C-76.32 11 -77.64 11 -79 11 Z M43 11 C43.33 11.66 43.66 12.32 44 13 C44.33 12.34 44.66 11.68 45 11 C44.34 11 43.68 11 43 11 Z M-17 12 C-16.67 13.65 -16.34 15.3 -16 17 C-15.67 17 -15.34 17 -15 17 C-15 15.35 -15 13.7 -15 12 C-15.66 12 -16.32 12 -17 12 Z M-79 13 C-78 16 -78 16 -78 16 Z M-36 14 C-35 16 -35 16 -35 16 Z M43 14 C44 16 44 16 44 16 Z M-46 15 C-45 17 -45 17 -45 17 Z M25 15 C24.67 15.66 24.34 16.32 24 17 C24.66 17 25.32 17 26 17 C25.67 16.34 25.34 15.68 25 15 Z M28 15 C27.01 16.485 27.01 16.485 26 18 C26.99 18 27.98 18 29 18 C28.67 17.01 28.34 16.02 28 15 Z M-50 20 C-49.67 20.66 -49.34 21.32 -49 22 C-48.34 22 -47.68 22 -47 22 C-46.67 22.66 -46.34 23.32 -46 24 C-45.01 23.67 -44.02 23.34 -43 23 C-42.67 21.35 -42.34 19.7 -42 18 C-45.76687864 18 -46.91190305 18.23537317 -50 20 Z M24 18 C24 18.66 24 19.32 24 20 C25.32 20.33 26.64 20.66 28 21 C28 20.34 28 19.68 28 19 C26.68 18.67 25.36 18.34 24 18 Z M43 18 C43 20.31 43 22.62 43 25 C43.66 25 44.32 25 45 25 C44.67 22.69 44.34 20.38 44 18 C43.67 18 43.34 18 43 18 Z M54 18 C54 18.99 54 19.98 54 21 C53.34 21.66 52.68 22.32 52 23 C52.99 23.33 53.98 23.66 55 24 C55.99 23.01 56.98 22.02 58 21 C57.34 20.01 56.68 19.02 56 18 C55.34 18 54.68 18 54 18 Z M51 20 C52 22 52 22 52 22 Z M25 21 C25.33 21.99 25.66 22.98 26 24 C26.99 23.67 27.98 23.34 29 23 C28.67 22.34 28.34 21.68 28 21 C27.01 21 26.02 21 25 21 Z M-36 22 C-36.33 23.32 -36.66 24.64 -37 26 C-36.01 26 -35.02 26 -34 26 C-34.66 24.68 -35.32 23.36 -36 22 Z M35 25 C34.01 26.485 34.01 26.485 33 28 C33.99 28 34.98 28 36 28 C35.67 27.01 35.34 26.02 35 25 Z " fill="#2B2B2B" transform="translate(167,17)"/>
<path d="M0 0 C1.42662964 -0.01418472 1.42662964 -0.01418472 2.88208008 -0.02865601 C3.90712646 -0.02258331 4.93217285 -0.01651062 5.98828125 -0.01025391 C7.04233154 -0.01312408 8.09638184 -0.01599426 9.18237305 -0.01895142 C11.41162656 -0.02099354 13.64089792 -0.01545339 15.87011719 -0.00292969 C19.28751593 0.01312129 22.7037319 -0.00277399 26.12109375 -0.02197266 C28.28515887 -0.01999025 30.44922325 -0.01614663 32.61328125 -0.01025391 C33.63832764 -0.0163266 34.66337402 -0.02239929 35.71948242 -0.02865601 C36.67056885 -0.01919952 37.62165527 -0.00974304 38.6015625 0 C39.43856689 0.00238678 40.27557129 0.00477356 41.13793945 0.00723267 C43.83133612 0.48163258 44.69940518 1.19503041 46.30078125 3.38818359 C47.71982194 11.46906798 47.62622513 19.76208795 47.86328125 27.95068359 C47.90657301 29.35499062 47.95019029 30.75928765 47.99414062 32.16357422 C48.09954636 35.57169311 48.20167107 38.97987679 48.30078125 42.38818359 C47.64078125 42.38818359 46.98078125 42.38818359 46.30078125 42.38818359 C46.52765625 43.27505859 46.75453125 44.16193359 46.98828125 45.07568359 C47.35738336 48.988166 46.59989287 50.29322565 44.30078125 53.38818359 C42.72370561 54.96525923 41.12583536 54.53892092 38.9362793 54.56518555 C38.00829025 54.57802078 37.08030121 54.59085602 36.12419128 54.6040802 C34.6086541 54.6151606 34.6086541 54.6151606 33.0625 54.62646484 C32.03018753 54.63453659 30.99787506 54.64260834 29.9342804 54.65092468 C27.74437143 54.66478441 25.5544407 54.67549807 23.36450195 54.68334961 C20.01276727 54.70055788 16.66201973 54.74442721 13.31054688 54.78857422 C11.18620519 54.79870096 9.0618551 54.80721712 6.9375 54.81396484 C5.93321457 54.83147293 4.92892914 54.84898102 3.89421082 54.86701965 C0.00183878 54.85487239 -2.84855284 54.82944485 -6.33300781 53.02197266 C-8.54553543 48.75664959 -8.24858771 44.55467477 -8.1953125 39.82177734 C-8.19676773 38.79133804 -8.19822296 37.76089874 -8.19972229 36.69923401 C-8.19806359 34.52301198 -8.18650566 32.34677818 -8.16577148 30.1706543 C-8.13679494 26.83445605 -8.14516794 23.49984437 -8.15820312 20.16357422 C-8.15196643 18.04963418 -8.14357603 15.93569918 -8.1328125 13.82177734 C-8.13574814 12.82174179 -8.13868378 11.82170624 -8.14170837 10.79136658 C-8.1290242 9.86352859 -8.11634003 8.93569061 -8.10327148 7.97973633 C-8.0978685 7.16351303 -8.09246552 6.34728973 -8.0868988 5.5063324 C-7.22299817 0.78628018 -4.40661807 0.0125658 0 0 Z M15.30078125 13.38818359 C15.08160808 16.09131935 14.97226142 17.82776742 16.36328125 20.20068359 C19.29346876 21.99660497 21.94807655 21.57795933 25.30078125 21.38818359 C25.30078125 24.68818359 25.30078125 27.98818359 25.30078125 31.38818359 C27.94078125 31.38818359 30.58078125 31.38818359 33.30078125 31.38818359 C33.30078125 25.44818359 33.30078125 19.50818359 33.30078125 13.38818359 C30.86703125 13.32630859 28.43328125 13.26443359 25.92578125 13.20068359 C25.16088379 13.17337158 24.39598633 13.14605957 23.60791016 13.11791992 C21.83671106 13.09595119 20.06586042 13.23944097 18.30078125 13.38818359 C17.31078125 14.87318359 17.31078125 14.87318359 16.30078125 16.38818359 C15.97078125 15.39818359 15.64078125 14.40818359 15.30078125 13.38818359 Z M15.30078125 19.38818359 C16.30078125 21.38818359 16.30078125 21.38818359 16.30078125 21.38818359 Z M7.30078125 33.38818359 C6.31957661 36.44082024 6.31957661 38.33554695 7.30078125 41.38818359 C9.28078125 41.38818359 11.26078125 41.38818359 13.30078125 41.38818359 C13.30078125 38.74818359 13.30078125 36.10818359 13.30078125 33.38818359 C11.32078125 33.38818359 9.34078125 33.38818359 7.30078125 33.38818359 Z " fill="#0A0A0A" transform="translate(16.69921875,7.61181640625)"/>
<path d="M0 0 C3.63 0 7.26 0 11 0 C11.33 1.65 11.66 3.3 12 5 C13.65 5 15.3 5 17 5 C17.144375 6.175625 17.28875 7.35125 17.4375 8.5625 C17.91410176 12.38212272 18.44453544 16.19110019 19 20 C19.66 20 20.32 20 21 20 C20.97679688 19.15695313 20.95359375 18.31390625 20.9296875 17.4453125 C20.91164063 16.34960938 20.89359375 15.25390625 20.875 14.125 C20.85179688 13.03445312 20.82859375 11.94390625 20.8046875 10.8203125 C21 8 21 8 23 6 C23.495 6.99 23.495 6.99 24 8 C25.32 8 26.64 8 28 8 C28.495 10.97 28.495 10.97 29 14 C29.33 12.02 29.66 10.04 30 8 C31.134375 8.020625 32.26875 8.04125 33.4375 8.0625 C36.81575674 8.41577477 36.81575674 8.41577477 38 7 C42.63836157 6.57833077 45.33943406 7.07646076 49 10 C49.59375 12.8125 49.59375 12.8125 49.5 16 C49.4896875 17.051875 49.479375 18.10375 49.46875 19.1875 C49 22 49 22 47.76171875 23.86328125 C45.47210829 25.34061306 44.01501537 25.30500067 41.3125 25.1875 C40.50425781 25.16042969 39.69601563 25.13335937 38.86328125 25.10546875 C38.24839844 25.07066406 37.63351563 25.03585938 37 25 C36.67 27.31 36.34 29.62 36 32 C34.35 32 32.7 32 31 32 C30.34 29.03 29.68 26.06 29 23 C28.505 24.485 28.505 24.485 28 26 C23.94052459 27.84521609 21.25669273 28.30975161 17 27 C16.175 26.62875 15.35 26.2575 14.5 25.875 C11.56560528 24.84796185 9.94841899 25.15759457 7 26 C6.67 26.99 6.34 27.98 6 29 C-0.75 28.125 -0.75 28.125 -3 27 C-3.66 27 -4.32 27 -5 27 C-7 27 -7 27 -8.625 25.8125 C-10.43574835 23.42560445 -10.30813578 21.92728993 -10 19 C-9 18 -9 18 -6.0625 17.8125 C-3 18 -3 18 -1 20 C0.32 20 1.64 20 3 20 C3 19.34 3 18.68 3 18 C1.30900174 16.74164736 1.30900174 16.74164736 -0.8125 15.5625 C-3.56943033 13.96056781 -5.97594385 12.49654875 -8 10 C-8 9.01 -8 8.02 -8 7 C-6.02 7 -4.04 7 -2 7 C-2 6.34 -2 5.68 -2 5 C-1.34 5 -0.68 5 0 5 C0.33 4.01 0.66 3.02 1 2 C0.67 1.67 0.34 1.34 0 1 C0 0.67 0 0.34 0 0 Z M1 5 C0.67 6.32 0.34 7.64 0 9 C2.475 9.99 2.475 9.99 5 11 C5.66 10.34 6.32 9.68 7 9 C6.34 9 5.68 9 5 9 C5 7.68 5 6.36 5 5 C3.68 5 2.36 5 1 5 Z M7 8 C7.99 8.495 7.99 8.495 9 9 C8.95875 9.94875 8.9175 10.8975 8.875 11.875 C8.65026182 15.10244856 8.65026182 15.10244856 11 17 C11 14.03 11 11.06 11 8 C9.68 8 8.36 8 7 8 Z M7 10 C8 13 8 13 8 13 Z M40 12 C41 14 41 14 41 14 Z M36 17 C36.33 17.66 36.66 18.32 37 19 C37.66 19 38.32 19 39 19 C39.33 19.66 39.66 20.32 40 21 C40.99 20.67 41.98 20.34 43 20 C43.33 18.35 43.66 16.7 44 15 C40.23312136 15 39.08809695 15.23537317 36 17 Z " fill="#121212" transform="translate(81,20)"/>
<path d="M0 0 C2.64 0 5.28 0 8 0 C8.495 5.94 8.495 5.94 9 12 C9.33 12 9.66 12 10 12 C10 16.29 10 20.58 10 25 C9.34 25 8.68 25 8 25 C8.66 26.65 9.32 28.3 10 30 C7.4472893 32.5527107 6.41669481 32.29770183 2.875 32.3125 C-2.39736617 32.2360889 -6.22068075 31.16422004 -11 29 C-11.66 29.66 -12.32 30.32 -13 31 C-15.60491661 30.8185339 -18.05681623 30.53723614 -20.625 30.125 C-21.33140625 30.02058594 -22.0378125 29.91617188 -22.765625 29.80859375 C-24.51192414 29.54900874 -26.25618599 29.27578567 -28 29 C-25.35261084 27.5393715 -24.10551666 27 -21 27 C-21.01160156 26.02417969 -21.02320313 25.04835938 -21.03515625 24.04296875 C-21.04417969 22.77066406 -21.05320313 21.49835937 -21.0625 20.1875 C-21.07410156 18.92292969 -21.08570313 17.65835938 -21.09765625 16.35546875 C-21 13 -21 13 -20 10 C-21.98 10 -23.96 10 -26 10 C-26.45375 10.969375 -26.9075 11.93875 -27.375 12.9375 C-29 16 -29 16 -31 17 C-31 16.01 -31 15.02 -31 14 C-32.89353366 12.10646634 -34.84526801 10.5801368 -37 9 C-36.67 8.34 -36.34 7.68 -36 7 C-35.2575 7.185625 -34.515 7.37125 -33.75 7.5625 C-28.42909275 8.18327251 -23.31068067 7.55856674 -18 7 C-18 6.34 -18 5.68 -18 5 C-17.34 5 -16.68 5 -16 5 C-15.67 4.01 -15.34 3.02 -15 2 C-12.69 2 -10.38 2 -8 2 C-8 2.66 -8 3.32 -8 4 C-7.34 4 -6.68 4 -6 4 C-5.67 5.32 -5.34 6.64 -5 8 C-2.83125748 7.49396008 -1.00032373 7.00016187 1 6 C0.505 3.03 0.505 3.03 0 0 Z M0 8 C-0.33 8.66 -0.66 9.32 -1 10 C-0.34 10 0.32 10 1 10 C0.67 9.34 0.34 8.68 0 8 Z M-14 11 C-13.67 11.66 -13.34 12.32 -13 13 C-12.67 12.34 -12.34 11.68 -12 11 C-12.66 11 -13.32 11 -14 11 Z M-14 14 C-13 16 -13 16 -13 16 Z M-14 18 C-14 20.31 -14 22.62 -14 25 C-13.34 25 -12.68 25 -12 25 C-12.33 22.69 -12.66 20.38 -13 18 C-13.33 18 -13.66 18 -14 18 Z M-3 18 C-3 18.99 -3 19.98 -3 21 C-3.66 21.66 -4.32 22.32 -5 23 C-4.01 23.33 -3.02 23.66 -2 24 C-1.01 23.01 -0.02 22.02 1 21 C0.34 20.01 -0.32 19.02 -1 18 C-1.66 18 -2.32 18 -3 18 Z M-6 20 C-5 22 -5 22 -5 22 Z " fill="#111111" transform="translate(224,17)"/>
<path d="M0 0 C2.64 0 5.28 0 8 0 C8.08636719 0.62648438 8.17273438 1.25296875 8.26171875 1.8984375 C8.68626709 4.36782875 9.14272416 6.64356842 10 9 C12.47014472 10.67613187 12.47014472 10.67613187 15 11 C14.67 11.99 14.34 12.98 14 14 C14.66 14.33 15.32 14.66 16 15 C16 15.66 16 16.32 16 17 C16.99 17.33 17.98 17.66 19 18 C18.9690625 16.2984375 18.9690625 16.2984375 18.9375 14.5625 C19 11 19 11 20 10 C22.31 10 24.62 10 27 10 C27 15.61 27 21.22 27 27 C26.01 27 25.02 27 24 27 C21.84971696 27.94978897 21.84971696 27.94978897 20 29 C20 29.33 20 29.66 20 30 C11.42857143 30.28571429 11.42857143 30.28571429 8 28 C8 27.01 8 26.02 8 25 C7.67 26.65 7.34 28.3 7 30 C4.6875 30.6875 4.6875 30.6875 2 31 C-0.01549368 29.49755192 -0.892662 28.59916915 -1.34057617 26.09887695 C-1.32486572 25.40238037 -1.30915527 24.70588379 -1.29296875 23.98828125 C-1.28330078 23.23095703 -1.27363281 22.47363281 -1.26367188 21.69335938 C-1.23853516 20.90767578 -1.21339844 20.12199219 -1.1875 19.3125 C-1.17396484 18.51521484 -1.16042969 17.71792969 -1.14648438 16.89648438 C-1.11117089 14.93070033 -1.05736447 12.96526418 -1 11 C-2.65 11 -4.3 11 -6 11 C-6 9.35 -6 7.7 -6 6 C-4.68 5.67 -3.36 5.34 -2 5 C-2.99 5.495 -2.99 5.495 -4 6 C-4.65213292 8.02463255 -4.65213292 8.02463255 -5 10 C-1.32769295 6.92000054 -0.43197635 4.7517398 0 0 Z M14 18 C14 18.66 14 19.32 14 20 C15.32 20.33 16.64 20.66 18 21 C18 20.34 18 19.68 18 19 C16.68 18.67 15.36 18.34 14 18 Z M15 21 C15.33 21.99 15.66 22.98 16 24 C16.99 23.67 17.98 23.34 19 23 C18.67 22.34 18.34 21.68 18 21 C17.01 21 16.02 21 15 21 Z " fill="#9A9A9A" transform="translate(177,17)"/>
<path d="M0 0 C3.63 0 7.26 0 11 0 C11.33 1.65 11.66 3.3 12 5 C13.65 5 15.3 5 17 5 C17.33 6.65 17.66 8.3 18 10 C17.34 10 16.68 10 16 10 C16 9.34 16 8.68 16 8 C13.69 8.33 11.38 8.66 9 9 C10.30955077 14.94334578 11.57919599 19.57919599 16 24 C18.0719137 24.31889832 18.0719137 24.31889832 20.375 24.25 C21.14585938 24.25515625 21.91671875 24.2603125 22.7109375 24.265625 C25.1992361 23.97688045 26.84234198 23.24139229 29 22 C28.875 23.875 28.875 23.875 28 26 C23.97421326 27.92139822 21.24520541 28.30621705 17 27 C16.175 26.62875 15.35 26.2575 14.5 25.875 C11.56560528 24.84796185 9.94841899 25.15759457 7 26 C6.67 26.99 6.34 27.98 6 29 C-0.75 28.125 -0.75 28.125 -3 27 C-3.66 27 -4.32 27 -5 27 C-7 27 -7 27 -8.625 25.8125 C-10.43574835 23.42560445 -10.30813578 21.92728993 -10 19 C-9 18 -9 18 -6.0625 17.8125 C-3 18 -3 18 -1 20 C0.32 20 1.64 20 3 20 C3 19.34 3 18.68 3 18 C1.30900174 16.74164736 1.30900174 16.74164736 -0.8125 15.5625 C-3.56943033 13.96056781 -5.97594385 12.49654875 -8 10 C-8 9.01 -8 8.02 -8 7 C-6.02 7 -4.04 7 -2 7 C-2 6.34 -2 5.68 -2 5 C-1.34 5 -0.68 5 0 5 C0.33 4.01 0.66 3.02 1 2 C0.67 1.67 0.34 1.34 0 1 C0 0.67 0 0.34 0 0 Z M1 5 C0.67 6.32 0.34 7.64 0 9 C2.475 9.99 2.475 9.99 5 11 C5.66 10.34 6.32 9.68 7 9 C6.34 9 5.68 9 5 9 C5 7.68 5 6.36 5 5 C3.68 5 2.36 5 1 5 Z M7 10 C8 13 8 13 8 13 Z " fill="#373737" transform="translate(81,20)"/>
<path d="M0 0 C2.31 0 4.62 0 7 0 C7 0.66 7 1.32 7 2 C7.66 2 8.32 2 9 2 C9.33 3.32 9.66 4.64 10 6 C9.01 6.33 8.02 6.66 7 7 C6.39938767 8.90178785 6.39938767 8.90178785 6 11 C5.01 12.485 5.01 12.485 4 14 C3.92094936 16.33199388 3.91201231 18.66832622 4 21 C3.34 21 2.68 21 2 21 C1.67 21.66 1.34 22.32 1 23 C2.32 22.67 3.64 22.34 5 22 C5.66 23.65 6.32 25.3 7 27 C5.66666667 27.33333333 4.33333333 27.66666667 3 28 C2.13375 28.29390625 2.13375 28.29390625 1.25 28.59375 C-1.77208342 29.13940395 -4.23906705 28.61886804 -7.25 28.0625 C-8.32765625 27.86785156 -9.4053125 27.67320313 -10.515625 27.47265625 C-11.33546875 27.31667969 -12.1553125 27.16070312 -13 27 C-10.35261084 25.5393715 -9.10551666 25 -6 25 C-6.01160156 24.02417969 -6.02320313 23.04835938 -6.03515625 22.04296875 C-6.04417969 20.77066406 -6.05320313 19.49835937 -6.0625 18.1875 C-6.07410156 16.92292969 -6.08570313 15.65835938 -6.09765625 14.35546875 C-6 11 -6 11 -5 8 C-6.98 8 -8.96 8 -11 8 C-11.45375 8.969375 -11.9075 9.93875 -12.375 10.9375 C-14 14 -14 14 -16 15 C-16 14.01 -16 13.02 -16 12 C-17.89353366 10.10646634 -19.84526801 8.5801368 -22 7 C-21.67 6.34 -21.34 5.68 -21 5 C-20.2575 5.185625 -19.515 5.37125 -18.75 5.5625 C-13.42909275 6.18327251 -8.31068067 5.55856674 -3 5 C-3 4.34 -3 3.68 -3 3 C-2.34 3 -1.68 3 -1 3 C-0.67 2.01 -0.34 1.02 0 0 Z M1 9 C1.33 9.66 1.66 10.32 2 11 C2.33 10.34 2.66 9.68 3 9 C2.34 9 1.68 9 1 9 Z M1 12 C2 14 2 14 2 14 Z " fill="#C9C9C9" transform="translate(209,19)"/>
<path d="M0 0 C2.31 0 4.62 0 7 0 C7 5.61 7 11.22 7 17 C6.01 17 5.02 17 4 17 C1.84971696 17.94978897 1.84971696 17.94978897 0 19 C0 19.33 0 19.66 0 20 C-8.57142857 20.28571429 -8.57142857 20.28571429 -12 18 C-12 14.58224994 -11.75017896 11.22118827 -11.5 7.8125 C-11.4071875 6.54019531 -11.314375 5.26789062 -11.21875 3.95703125 C-11.1465625 2.98121094 -11.074375 2.00539063 -11 1 C-9.68 1 -8.36 1 -7 1 C-7 5.29 -7 9.58 -7 14 C-5.02 13.67 -3.04 13.34 -1 13 C-1.34786708 11.02463255 -1.34786708 11.02463255 -2 9 C-2.66 8.67 -3.32 8.34 -4 8 C-3.01 8 -2.02 8 -1 8 C-1.020625 6.865625 -1.04125 5.73125 -1.0625 4.5625 C-1 1 -1 1 0 0 Z " fill="#161616" transform="translate(197,27)"/>
<path d="M0 0 C0.66 0.66 1.32 1.32 2 2 C2.99 2 3.98 2 5 2 C5.05383848 4.45862401 5.09359038 6.9160755 5.125 9.375 C5.14175781 10.07367188 5.15851563 10.77234375 5.17578125 11.4921875 C5.19344267 13.32897486 5.10303261 15.16601963 5 17 C2.61775072 19.38224928 1.9497963 19.32017149 -1.3125 19.375 C-2.07175781 19.40335938 -2.83101562 19.43171875 -3.61328125 19.4609375 C-7.06584353 18.79415788 -8.63059748 17.58555854 -11 15 C-11.48828125 11.546875 -11.48828125 11.546875 -11.3125 7.75 C-11.26738281 6.48671875 -11.22226563 5.2234375 -11.17578125 3.921875 C-11.11777344 2.95765625 -11.05976562 1.9934375 -11 1 C-8.578125 1.3671875 -8.578125 1.3671875 -6 2 C-3.81377828 5.71657692 -3.49808755 9.7662558 -3 14 C-2.34 14 -1.68 14 -1 14 C-1.01160156 13.15695313 -1.02320312 12.31390625 -1.03515625 11.4453125 C-1.04417969 10.34960938 -1.05320312 9.25390625 -1.0625 8.125 C-1.07410156 7.03445312 -1.08570312 5.94390625 -1.09765625 4.8203125 C-1 2 -1 2 0 0 Z " fill="#121212" transform="translate(103,26)"/>
<path d="M0 0 C0.495 1.485 0.495 1.485 1 3 C0.34 3.33 -0.32 3.66 -1 4 C-0.814375 4.7425 -0.62875 5.485 -0.4375 6.25 C0.00523487 9.0329049 0.22141833 10.46991918 -1 13 C-4.97241977 15.38345186 -7.59580736 14.80893334 -12 14 C-12.969375 14.165 -13.93875 14.33 -14.9375 14.5 C-21.05101496 15.49812489 -25.68183823 13.98335904 -31 11 C-31 11.66 -31 12.32 -31 13 C-32.47887733 13.33461467 -33.95811058 13.66765667 -35.4375 14 C-36.67306641 14.2784375 -36.67306641 14.2784375 -37.93359375 14.5625 C-40 15 -40 15 -41 15 C-41.66 16.98 -42.32 18.96 -43 21 C-44.98 21.33 -46.96 21.66 -49 22 C-50.0625 20.1875 -50.0625 20.1875 -51 18 C-50.505 16.515 -50.505 16.515 -50 15 C-49.67 16.32 -49.34 17.64 -49 19 C-47.35 19 -45.7 19 -44 19 C-44 16.36 -44 13.72 -44 11 C-43.31292969 11.02320313 -42.62585938 11.04640625 -41.91796875 11.0703125 C-41.01691406 11.08835937 -40.11585937 11.10640625 -39.1875 11.125 C-38.29417969 11.14820313 -37.40085937 11.17140625 -36.48046875 11.1953125 C-33.74597286 11.18285827 -33.74597286 11.18285827 -31 9 C-30.01 9.33 -29.02 9.66 -28 10 C-27.67 8.68 -27.34 7.36 -27 6 C-26.731875 6.61875 -26.46375 7.2375 -26.1875 7.875 C-25.04443152 10.2995233 -25.04443152 10.2995233 -22 12 C-19.24612373 12.02477359 -19.24612373 12.02477359 -16.3125 11.625 C-15.31863281 11.51414062 -14.32476562 11.40328125 -13.30078125 11.2890625 C-12.54152344 11.19367187 -11.78226563 11.09828125 -11 11 C-11.495 9.515 -11.495 9.515 -12 8 C-10.68 8.33 -9.36 8.66 -8 9 C-8 9.66 -8 10.32 -8 11 C-5.525 11.495 -5.525 11.495 -3 12 C-3.03480469 11.30132812 -3.06960937 10.60265625 -3.10546875 9.8828125 C-3.13253906 8.97273438 -3.15960938 8.06265625 -3.1875 7.125 C-3.23970703 5.76761719 -3.23970703 5.76761719 -3.29296875 4.3828125 C-3.19628906 3.59648438 -3.09960938 2.81015625 -3 2 C-2.01 1.34 -1.02 0.68 0 0 Z " fill="#A1A1A1" transform="translate(161,33)"/>
<path d="M0 0 C0 1.65 0 3.3 0 5 C-1.32 5 -2.64 5 -4 5 C-4.33 6.65 -4.66 8.3 -5 10 C-3.35 10 -1.7 10 0 10 C0 10.99 0 11.98 0 13 C-1.65 13 -3.3 13 -5 13 C-5 17.62 -5 22.24 -5 27 C-6.32 27 -7.64 27 -9 27 C-9.11622939 23.25026094 -9.1872595 19.50098536 -9.25 15.75 C-9.28351563 14.68652344 -9.31703125 13.62304688 -9.3515625 12.52734375 C-9.36445313 11.50253906 -9.37734375 10.47773438 -9.390625 9.421875 C-9.41157227 8.47924805 -9.43251953 7.53662109 -9.45410156 6.56542969 C-8.50212482 1.18727288 -5.15514956 -0.5727944 0 0 Z " fill="#030303" transform="translate(176,18)"/>
<path d="M0 0 C5.43422694 5.43422694 3.34518207 19.05571773 3.5625 26.5625 C3.60579176 27.96680703 3.64940904 29.37110406 3.69335938 30.77539062 C3.79876511 34.18350951 3.90088982 37.5916932 4 41 C3.34 41 2.68 41 2 41 C2.309375 42.36125 2.309375 42.36125 2.625 43.75 C3.0127245 47.11027897 2.80411967 48.24075815 1 51 C0.67 51 0.34 51 0 51 C0 34.17 0 17.34 0 0 Z " fill="#595959" transform="translate(61,9)"/>
<path d="M0 0 C2.64 0 5.28 0 8 0 C8.33 3.96 8.66 7.92 9 12 C9.33 12 9.66 12 10 12 C10 16.29 10 20.58 10 25 C9.34 25 8.68 25 8 25 C8.66 26.65 9.32 28.3 10 30 C8 32 8 32 5.5390625 32.265625 C4.57742187 32.26046875 3.61578125 32.2553125 2.625 32.25 C1.19027344 32.25773437 1.19027344 32.25773437 -0.2734375 32.265625 C-3.01058658 31.99896864 -4.65987457 31.39742087 -7 30 C-6.67 29.34 -6.34 28.68 -6 28 C-4.07421875 27.55078125 -4.07421875 27.55078125 -1.6875 27.3125 C-0.90761719 27.22613281 -0.12773437 27.13976562 0.67578125 27.05078125 C3 27 3 27 7 28 C7 19.09 7 10.18 7 1 C5.68 1 4.36 1 3 1 C3 4.63 3 8.26 3 12 C0 10 0 10 -0.6875 7.875 C-0.790625 7.25625 -0.89375 6.6375 -1 6 C-0.34 6 0.32 6 1 6 C0.67 4.02 0.34 2.04 0 0 Z " fill="#8A8A8A" transform="translate(224,17)"/>
<path d="M0 0 C2.97 0 5.94 0 9 0 C9 0.33 9 0.66 9 1 C8.05125 1.28875 7.1025 1.5775 6.125 1.875 C2.94788422 2.76825109 2.94788422 2.76825109 1 5 C0.62904292 7.42246595 0.62904292 7.42246595 0.5859375 10.2265625 C0.54726562 11.2578125 0.50859375 12.2890625 0.46875 13.3515625 C0.42234375 14.97191406 0.42234375 14.97191406 0.375 16.625 C0.33632812 17.71296875 0.29765625 18.8009375 0.2578125 19.921875 C0.16333753 22.61441165 0.07777569 25.30693757 0 28 C1.32 28 2.64 28 4 28 C4 23.38 4 18.76 4 14 C5.65 14 7.3 14 9 14 C9 14.66 9 15.32 9 16 C7.68 16 6.36 16 5 16 C5.33 20.29 5.66 24.58 6 29 C4.35 29.66 2.7 30.32 1 31 C-2 29 -2 29 -2.75 26 C-3 23 -3 23 -2 21 C-2.66 20.67 -3.32 20.34 -4 20 C-3.34 20 -2.68 20 -2 20 C-2 18.68 -2 17.36 -2 16 C-2.99 16 -3.98 16 -5 16 C-5 15.34 -5 14.68 -5 14 C-4.34 14 -3.68 14 -3 14 C-2.95101562 13.32453125 -2.90203125 12.6490625 -2.8515625 11.953125 C-2.77679688 11.06109375 -2.70203125 10.1690625 -2.625 9.25 C-2.55539063 8.36828125 -2.48578125 7.4865625 -2.4140625 6.578125 C-2 4 -2 4 0 0 Z " fill="#6C6C6C" transform="translate(167,17)"/>
<path d="M0 0 C0 1.32 0 2.64 0 4 C-0.66 4 -1.32 4 -2 4 C-2.33 4.99 -2.66 5.98 -3 7 C-3.99 7.495 -3.99 7.495 -5 8 C-5.46751788 10.35599235 -5.46751788 10.35599235 -5.625 13.0625 C-5.69976562 13.98160156 -5.77453125 14.90070312 -5.8515625 15.84765625 C-5.90054688 16.55792969 -5.94953125 17.26820312 -6 18 C-7.65 18 -9.3 18 -11 18 C-11.97608217 15.07175348 -12.08226668 13.04386724 -12 10 C-11.34 10 -10.68 10 -10 10 C-10 7.03 -10 4.06 -10 1 C-3.375 0 -3.375 0 0 0 Z " fill="#111111" transform="translate(164,27)"/>
<path d="M0 0 C0.9075 0.185625 1.815 0.37125 2.75 0.5625 C8.19049325 1.37016085 13.56041069 0.55007083 19 0 C18.67 6.93 18.34 13.86 18 21 C19.98 20.67 21.96 20.34 24 20 C24 21.32 24 22.64 24 24 C16.575 23.01 16.575 23.01 9 22 C13 20 13 20 16 20 C15.98839844 19.02417969 15.97679687 18.04835938 15.96484375 17.04296875 C15.95582031 15.77066406 15.94679687 14.49835937 15.9375 13.1875 C15.92589844 11.92292969 15.91429687 10.65835938 15.90234375 9.35546875 C16 6 16 6 17 3 C15.02 3 13.04 3 11 3 C10.54625 3.969375 10.0925 4.93875 9.625 5.9375 C8 9 8 9 6 10 C6 9.01 6 8.02 6 7 C4.07858195 4.96531067 4.07858195 4.96531067 1.875 3.5 C1.25625 3.005 0.6375 2.51 0 2 C0 1.34 0 0.68 0 0 Z " fill="#EBEBEB" transform="translate(187,24)"/>
<path d="M0 0 C1.32 0 2.64 0 4 0 C4 8.91 4 17.82 4 27 C2.68 27 1.36 27 0 27 C0 18.09 0 9.18 0 0 Z " fill="#080808" transform="translate(179,18)"/>
<path d="M0 0 C0.79921875 0.19464844 1.5984375 0.38929687 2.421875 0.58984375 C3.02515625 0.74582031 3.6284375 0.90179687 4.25 1.0625 C4.25 1.3925 4.25 1.7225 4.25 2.0625 C6.56 2.3925 8.87 2.7225 11.25 3.0625 C9.875 5.5625 9.875 5.5625 8.25 8.0625 C7.59 8.0625 6.93 8.0625 6.25 8.0625 C5.25 7.0625 4.25 6.0625 3.25 5.0625 C-0.09385594 2.87169783 -2.80286798 2.8105554 -6.75 3.0625 C-7.74 3.3925 -8.73 3.7225 -9.75 4.0625 C-11.07 4.0625 -12.39 4.0625 -13.75 4.0625 C-14.08 5.7125 -14.41 7.3625 -14.75 9.0625 C-15.41 9.0625 -16.07 9.0625 -16.75 9.0625 C-16.75 7.0825 -16.75 5.1025 -16.75 3.0625 C-18.07 3.0625 -19.39 3.0625 -20.75 3.0625 C-20.75 7.0225 -20.75 10.9825 -20.75 15.0625 C-21.08 15.0625 -21.41 15.0625 -21.75 15.0625 C-21.75 10.4425 -21.75 5.8225 -21.75 1.0625 C-15.51623377 0.02353896 -15.51623377 0.02353896 -11.75 1.0625 C-10.76 0.7325 -9.77 0.4025 -8.75 0.0625 C-5.4693987 -1.01521819 -3.34002791 -0.83500698 0 0 Z " fill="#C4C4C4" transform="translate(125.75,24.9375)"/>
<path d="M0 0 C3.63 0 7.26 0 11 0 C11.33 1.65 11.66 3.3 12 5 C13.65 5 15.3 5 17 5 C17.33 6.65 17.66 8.3 18 10 C17.34 10 16.68 10 16 10 C16 9.34 16 8.68 16 8 C10.555 8.495 10.555 8.495 5 9 C5 7.68 5 6.36 5 5 C4.01 4.67 3.02 4.34 2 4 C2 3.01 2 2.02 2 1 C1.34 0.67 0.68 0.34 0 0 Z " fill="#161616" transform="translate(81,20)"/>
<path d="M0 0 C2.14720899 2.14720899 2.5434221 3.07790143 3 6 C2.67 6.66 2.34 7.32 2 8 C1.77141886 10.0374763 1.58975722 12.08040303 1.4375 14.125 C1.35371094 15.22070312 1.26992187 16.31640625 1.18359375 17.4453125 C1.12300781 18.28835937 1.06242188 19.13140625 1 20 C-0.32 20 -1.64 20 -3 20 C-3 14.06 -3 8.12 -3 2 C-2.01 2 -1.02 2 0 2 C0 1.34 0 0.68 0 0 Z " fill="#0F0F0F" transform="translate(208,25)"/>
<path d="M0 0 C0.33 0.99 0.66 1.98 1 3 C0.01 3.495 0.01 3.495 -1 4 C-0.814375 4.7425 -0.62875 5.485 -0.4375 6.25 C0.00523487 9.0329049 0.22141833 10.46991918 -1 13 C-4.97241977 15.38345186 -7.59580736 14.80893334 -12 14 C-12.969375 14.165 -13.93875 14.33 -14.9375 14.5 C-18.51387747 15.08389836 -21.45225286 14.63859449 -25 14 C-25 13.34 -25 12.68 -25 12 C-24.11248047 12.01740234 -24.11248047 12.01740234 -23.20703125 12.03515625 C-18.99768215 12.08322386 -15.1077667 12.06006883 -11 11 C-11.33 10.01 -11.66 9.02 -12 8 C-10.68 8.33 -9.36 8.66 -8 9 C-8 9.66 -8 10.32 -8 11 C-5.525 11.495 -5.525 11.495 -3 12 C-3.03480469 11.30132812 -3.06960937 10.60265625 -3.10546875 9.8828125 C-3.13253906 8.97273438 -3.15960938 8.06265625 -3.1875 7.125 C-3.23970703 5.76761719 -3.23970703 5.76761719 -3.29296875 4.3828125 C-3.19628906 3.59648438 -3.09960938 2.81015625 -3 2 C-2.01 1.34 -1.02 0.68 0 0 Z " fill="#DEDEDE" transform="translate(161,33)"/>
<path d="M0 0 C0.66 0.33 1.32 0.66 2 1 C2 9.91 2 18.82 2 28 C1.34 27.67 0.68 27.34 0 27 C-0.31241455 24.28553021 -0.51336592 21.66090639 -0.625 18.9375 C-0.66367188 18.17888672 -0.70234375 17.42027344 -0.7421875 16.63867188 C-0.83673562 14.75952805 -0.91946756 12.87979664 -1 11 C-2.65 11 -4.3 11 -6 11 C-6 9.35 -6 7.7 -6 6 C-4.68 5.67 -3.36 5.34 -2 5 C-2.99 5.495 -2.99 5.495 -4 6 C-4.65213292 8.02463255 -4.65213292 8.02463255 -5 10 C-1.32769295 6.92000054 -0.43197635 4.7517398 0 0 Z " fill="#535353" transform="translate(177,17)"/>
<path d="M0 0 C2.31 0 4.62 0 7 0 C7 5.61 7 11.22 7 17 C6.01 16.67 5.02 16.34 4 16 C4.33 11.05 4.66 6.1 5 1 C3.68 1 2.36 1 1 1 C1 4.63 1 8.26 1 12 C0.01 11.67 -0.98 11.34 -2 11 C-2 10.34 -2 9.68 -2 9 C-2.66 8.67 -3.32 8.34 -4 8 C-3.01 8 -2.02 8 -1 8 C-1.020625 6.865625 -1.04125 5.73125 -1.0625 4.5625 C-1 1 -1 1 0 0 Z " fill="#676767" transform="translate(197,27)"/>
<path d="M0 0 C0.474375 0.66 0.94875 1.32 1.4375 2 C4.71546135 4.55840886 6.7425399 4.40509349 10.78125 4.3359375 C13.19150034 3.97100523 14.89109398 3.19824206 17 2 C16.875 3.875 16.875 3.875 16 6 C11.97421326 7.92139822 9.24520541 8.30621705 5 7 C3.7625 6.443125 3.7625 6.443125 2.5 5.875 C-0.43439472 4.84796185 -2.05158101 5.15759457 -5 6 C-5.33 6.99 -5.66 7.98 -6 9 C-6.66 8.34 -7.32 7.68 -8 7 C-8 6.34 -8 5.68 -8 5 C-6.20963542 3.99088542 -4.41927083 2.98177083 -2.62890625 1.97265625 C-1.02121854 1.1027487 -1.02121854 1.1027487 0 0 Z " fill="#8D8D8D" transform="translate(93,40)"/>
<path d="M0 0 C3.29714793 0.32971479 4.6226839 0.6226839 7 3 C7.3125 5.4375 7.3125 5.4375 7 8 C5.5 9.8125 5.5 9.8125 4 11 C3.01 10.67 2.02 10.34 1 10 C1.99 9.01 2.98 8.02 4 7 C3.01 6.01 2.02 5.02 1 4 C1.33 5.32 1.66 6.64 2 8 C1.01 8 0.02 8 -1 8 C-1.625 5.125 -1.625 5.125 -2 2 C-1.34 1.34 -0.68 0.68 0 0 Z " fill="#DFDFDF" transform="translate(220,31)"/>
<path d="M0 0 C0.33 0 0.66 0 1 0 C1 6.27 1 12.54 1 19 C2.98 18.67 4.96 18.34 7 18 C7 19.32 7 20.64 7 22 C-0.425 21.01 -0.425 21.01 -8 20 C-4 18 -4 18 -1 18 C-1.01160156 17.03578125 -1.02320313 16.0715625 -1.03515625 15.078125 C-1.04417969 13.81484375 -1.05320313 12.5515625 -1.0625 11.25 C-1.07410156 9.99703125 -1.08570313 8.7440625 -1.09765625 7.453125 C-1.02021027 4.71463499 -0.82780815 2.58119707 0 0 Z " fill="#CDCDCD" transform="translate(204,26)"/>
<path d="M0 0 C0.66 -0.33 1.32 -0.66 2 -1 C2 -0.34 2 0.32 2 1 C2.66 1 3.32 1 4 1 C4 1.66 4 2.32 4 3 C2.02 3 0.04 3 -2 3 C-2.33 4.65 -2.66 6.3 -3 8 C-3.66 8 -4.32 8 -5 8 C-5 6.02 -5 4.04 -5 2 C-6.32 2 -7.64 2 -9 2 C-9 5.96 -9 9.92 -9 14 C-9.33 14 -9.66 14 -10 14 C-10 9.38 -10 4.76 -10 0 C-6.30465669 -1.2317811 -3.81327437 -0.55465809 0 0 Z " fill="#959595" transform="translate(114,26)"/>
<path d="M0 0 C0.33 0.99 0.66 1.98 1 3 C-1 5 -1 5 -3.4609375 5.265625 C-4.42257813 5.26046875 -5.38421875 5.2553125 -6.375 5.25 C-7.80972656 5.25773437 -7.80972656 5.25773437 -9.2734375 5.265625 C-12.01058658 4.99896864 -13.65987457 4.39742087 -16 3 C-15.67 2.34 -15.34 1.68 -15 1 C-9.96109772 -0.0283474 -5.11310018 -0.08970351 0 0 Z " fill="#E0E0E0" transform="translate(233,44)"/>
<path d="M0 0 C1.32 0 2.64 0 4 0 C4 2.31 4 4.62 4 7 C3.34 7 2.68 7 2 7 C1.67 7.66 1.34 8.32 1 9 C2.32 8.67 3.64 8.34 5 8 C5.66 9.65 6.32 11.3 7 13 C6.401875 12.835 5.80375 12.67 5.1875 12.5 C2.88655664 11.8885876 2.88655664 11.8885876 0 12 C0 8.04 0 4.08 0 0 Z " fill="#878787" transform="translate(209,33)"/>
<path d="M0 0 C0.99 0.66 1.98 1.32 3 2 C2.67 2.66 2.34 3.32 2 4 C2.04125 4.825 2.0825 5.65 2.125 6.5 C2.08375 7.325 2.0425 8.15 2 9 C-1 11 -1 11 -3.6875 10.625 C-4.450625 10.41875 -5.21375 10.2125 -6 10 C-6.33 8.35 -6.66 6.7 -7 5 C-6.34 4.67 -5.68 4.34 -5 4 C-5 5.32 -5 6.64 -5 8 C-3.35 8 -1.7 8 0 8 C0 5.36 0 2.72 0 0 Z " fill="#E3E3E3" transform="translate(117,44)"/>
<path d="M0 0 C2 2 2 2 3 5 C4.32 5 5.64 5 7 5 C7.33 6.65 7.66 8.3 8 10 C7.34 10 6.68 10 6 10 C6 9.34 6 8.68 6 8 C2.37 8.33 -1.26 8.66 -5 9 C-4.67 7.35 -4.34 5.7 -4 4 C-3.67 4.99 -3.34 5.98 -3 7 C-2.01 7 -1.02 7 0 7 C0 4.69 0 2.38 0 0 Z " fill="#B2B2B2" transform="translate(91,20)"/>
<path d="M0 0 C1.65 0 3.3 0 5 0 C5 0.66 5 1.32 5 2 C3.68 2 2.36 2 1 2 C1.33 6.29 1.66 10.58 2 15 C0.35 15.66 -1.3 16.32 -3 17 C-3.66 16.67 -4.32 16.34 -5 16 C-5 15.34 -5 14.68 -5 14 C-3.35 14 -1.7 14 0 14 C0 9.38 0 4.76 0 0 Z " fill="#909090" transform="translate(171,31)"/>
<path d="M0 0 C2.97 0 5.94 0 9 0 C9 0.33 9 0.66 9 1 C8.05125 1.28875 7.1025 1.5775 6.125 1.875 C2.94788422 2.76825109 2.94788422 2.76825109 1 5 C0.59952556 7.32275177 0.2602896 9.65739357 0 12 C-0.66 12 -1.32 12 -2 12 C-2.25 4.5 -2.25 4.5 0 0 Z " fill="#5F5F5F" transform="translate(167,17)"/>
<path d="M0 0 C2.00720923 0.28674418 4.0085944 0.61866701 6 1 C6.33 2.32 6.66 3.64 7 5 C4.03 5 1.06 5 -2 5 C-1 1 -1 1 0 0 Z M2 1 C3 3 3 3 3 3 Z " fill="#989898" transform="translate(119,31)"/>
<path d="M0 0 C1.2065625 0.0309375 1.2065625 0.0309375 2.4375 0.0625 C2.4375 1.0525 2.4375 2.0425 2.4375 3.0625 C0.7875 3.0625 -0.8625 3.0625 -2.5625 3.0625 C-2.5625 7.6825 -2.5625 12.3025 -2.5625 17.0625 C-2.8925 17.0625 -3.2225 17.0625 -3.5625 17.0625 C-3.58934679 14.41659986 -3.60926357 11.77096904 -3.625 9.125 C-3.63337891 8.37025391 -3.64175781 7.61550781 -3.65039062 6.83789062 C-3.65902441 4.91255687 -3.61474333 2.98714419 -3.5625 1.0625 C-2.5625 0.0625 -2.5625 0.0625 0 0 Z " fill="#0E0E0E" transform="translate(173.5625,27.9375)"/>
<path d="M0 0 C0.33 0 0.66 0 1 0 C1 4.62 1 9.24 1 14 C-0.65 14.33 -2.3 14.66 -4 15 C-5.8125 13.5625 -5.8125 13.5625 -7 12 C-5 11 -5 11 0 12 C0 8.04 0 4.08 0 0 Z " fill="#A5A5A5" transform="translate(183,33)"/>
<path d="M0 0 C0.99 0 1.98 0 3 0 C3 3.96 3 7.92 3 12 C0 10 0 10 -0.6875 7.875 C-0.790625 7.25625 -0.89375 6.6375 -1 6 C-0.34 6 0.32 6 1 6 C0.67 4.02 0.34 2.04 0 0 Z " fill="#AEAEAE" transform="translate(224,17)"/>
<path d="M0 0 C0.66 1.32 1.32 2.64 2 4 C0.865625 4.268125 -0.26875 4.53625 -1.4375 4.8125 C-3.2009375 5.4003125 -3.2009375 5.4003125 -5 6 C-5.33 6.99 -5.66 7.98 -6 9 C-6.66 8.34 -7.32 7.68 -8 7 C-8 6.34 -8 5.68 -8 5 C-6.20963542 3.99088542 -4.41927083 2.98177083 -2.62890625 1.97265625 C-1.02121854 1.1027487 -1.02121854 1.1027487 0 0 Z " fill="#B3B3B3" transform="translate(93,40)"/>
<path d="M0 0 C1.65 0 3.3 0 5 0 C5.33 1.32 5.66 2.64 6 4 C3.36 4 0.72 4 -2 4 C-1.34 2.68 -0.68 1.36 0 0 Z " fill="#ACACAC" transform="translate(140,31)"/>
<path d="M0 0 C0.33 0 0.66 0 1 0 C1.12375 0.969375 1.2475 1.93875 1.375 2.9375 C1.58125 3.948125 1.7875 4.95875 2 6 C2.66 6.33 3.32 6.66 4 7 C3.39816251 9.02045442 2.72693904 11.02111039 2 13 C1.01 13.495 1.01 13.495 0 14 C0 9.38 0 4.76 0 0 Z " fill="#454545" transform="translate(108,28)"/>
<path d="M0 0 C1.65 0 3.3 0 5 0 C5 1.65 5 3.3 5 5 C3.35 5 1.7 5 0 5 C0 3.35 0 1.7 0 0 Z " fill="#080808" transform="translate(210,22)"/>
<path d="M0 0 C0.33 0.66 0.66 1.32 1 2 C-0.45635371 2.22174933 -1.91522956 2.42698698 -3.375 2.625 C-4.18710938 2.74101562 -4.99921875 2.85703125 -5.8359375 2.9765625 C-6.55007812 2.98429687 -7.26421875 2.99203125 -8 3 C-8.66 2.34 -9.32 1.68 -10 1 C-6.26317891 -0.81502739 -3.99179743 -1.33059914 0 0 Z " fill="#E9E9E9" transform="translate(126,25)"/>
<path d="M0 0 C0.99 0 1.98 0 3 0 C2 2 2 2 1 3 C0.95936168 4.66617115 0.957279 6.33388095 1 8 C-0.32 7.67 -1.64 7.34 -3 7 C-3 5.68 -3 4.36 -3 3 C-2.34 3 -1.68 3 -1 3 C-0.67 2.01 -0.34 1.02 0 0 Z " fill="#A0A0A0" transform="translate(209,19)"/>
<path d="M0 0 C0.99 0 1.98 0 3 0 C3.36923077 4.55384615 3.36923077 4.55384615 1.5 6.8125 C1.005 7.204375 0.51 7.59625 0 8 C-0.99 7.67 -1.98 7.34 -3 7 C-2.2575 6.38125 -2.2575 6.38125 -1.5 5.75 C0.43386092 3.87797662 0.43386092 3.87797662 0 0 Z " fill="#7F7F7F" transform="translate(224,34)"/>
<path d="M0 0 C1.32 0.33 2.64 0.66 4 1 C4 1.66 4 2.32 4 3 C5.65 3.33 7.3 3.66 9 4 C6 6 6 6 3.3125 5.625 C2.549375 5.41875 1.78625 5.2125 1 5 C0.67 3.35 0.34 1.7 0 0 Z " fill="#ADADAD" transform="translate(149,41)"/>
<path d="M0 0 C3 4 3 4 2.8125 6.0625 C2 8 2 8 0 11 C0 7.37 0 3.74 0 0 Z " fill="#959595" transform="translate(130,31)"/>
<path d="M0 0 C-1 2 -1 2 -3.3125 3.25 C-6 4 -6 4 -8.3125 3.125 C-8.869375 2.75375 -9.42625 2.3825 -10 2 C-6.5980513 -0.09350689 -3.94727588 -0.17942163 0 0 Z " fill="#929292" transform="translate(163,25)"/>
<path d="M0 0 C6.0546875 -0.1953125 6.0546875 -0.1953125 8 0 C8.66 0.66 9.32 1.32 10 2 C5.545 2.495 5.545 2.495 1 3 C0.67 2.01 0.34 1.02 0 0 Z " fill="#717171" transform="translate(77,45)"/>
<path d="M0 0 C0 0.99 0 1.98 0 3 C-0.99 3.495 -0.99 3.495 -2 4 C-2.33 4.66 -2.66 5.32 -3 6 C-4.32 4.68 -5.64 3.36 -7 2 C-4.69 1.34 -2.38 0.68 0 0 Z " fill="#B1B1B1" transform="translate(152,25)"/>
<path d="M0 0 C0.103125 0.639375 0.20625 1.27875 0.3125 1.9375 C0.539375 2.618125 0.76625 3.29875 1 4 C1.99 4.33 2.98 4.66 4 5 C4 5.66 4 6.32 4 7 C2.68 6.67 1.36 6.34 0 6 C-0.38218767 4.34385343 -0.71395102 2.67542976 -1 1 C-0.67 0.67 -0.34 0.34 0 0 Z " fill="#D9D9D9" transform="translate(111,48)"/>
<path d="M0 0 C-0.33 0.99 -0.66 1.98 -1 3 C-3.97 2.505 -3.97 2.505 -7 2 C-7 1.34 -7 0.68 -7 0 C-2.25 -1.125 -2.25 -1.125 0 0 Z " fill="#BBBBBB" transform="translate(212,45)"/>
<path d="M0 0 C0.78375 0.04125 1.5675 0.0825 2.375 0.125 C2.705 0.785 3.035 1.445 3.375 2.125 C-2.375 3.25 -2.375 3.25 -4.625 2.125 C-2.625 0.125 -2.625 0.125 0 0 Z " fill="#626262" transform="translate(122.625,44.875)"/>
<path d="M0 0 C1.65 0.99 3.3 1.98 5 3 C4.67 3.99 4.34 4.98 4 6 C2 6 2 6 0.375 4.5 C-0.07875 4.005 -0.5325 3.51 -1 3 C-0.67 2.01 -0.34 1.02 0 0 Z " fill="#CCCCCC" transform="translate(72,41)"/>
<path d="M0 0 C3 1 3 1 3 1 Z " fill="#A5A5A5" transform="translate(173,43)"/>
<path d="M0 0 C0.66 0.66 1.32 1.32 2 2 C1.34 2 0.68 2 0 2 C0 1.34 0 0.68 0 0 Z " fill="#DEDEDE" transform="translate(121,37)"/>
<path d="M0 0 C0.66 0.66 1.32 1.32 2 2 C1.34 2 0.68 2 0 2 C0 1.34 0 0.68 0 0 Z " fill="#979797" transform="translate(78,36)"/>
<path d="M0 0 C3 1 3 1 3 1 Z " fill="#989898" transform="translate(82,26)"/>
<path d="" fill="#D1D1D1" transform="translate(0,0)"/>
<path d="M0 0 C2 1 2 1 2 1 Z " fill="#E4E4E4" transform="translate(233,43)"/>
<path d="M0 0 C2 1 2 1 2 1 Z " fill="#797979" transform="translate(75,34)"/>
<path d="M0 0 C2 1 2 1 2 1 Z " fill="#E5E5E5" transform="translate(100,30)"/>
<path d="M0 0 C2 1 2 1 2 1 Z " fill="#E5E5E5" transform="translate(99,27)"/>
<path d="" fill="#CDCDCD" transform="translate(0,0)"/>
<path d="" fill="#CECECE" transform="translate(0,0)"/>
<path d="" fill="#CFCFCF" transform="translate(0,0)"/>
<path d="" fill="#CFCFCF" transform="translate(0,0)"/>
<path d="" fill="#CFCFCF" transform="translate(0,0)"/>
<path d="" fill="#D0D0D0" transform="translate(0,0)"/>
<path d="" fill="#CBCBCB" transform="translate(0,0)"/>
<path d="" fill="#CFCFCF" transform="translate(0,0)"/>
<path d="" fill="#CFCFCF" transform="translate(0,0)"/>
<path d="" fill="#CFCFCF" transform="translate(0,0)"/>
<path d="" fill="#D0D0D0" transform="translate(0,0)"/>
<path d="" fill="#CFCFCF" transform="translate(0,0)"/>
<path d="" fill="#CFCFCF" transform="translate(0,0)"/>
<path d="" fill="#CFCFCF" transform="translate(0,0)"/>
<path d="" fill="#CFCFCF" transform="translate(0,0)"/>
<path d="" fill="#CDCDCD" transform="translate(0,0)"/>
<path d="" fill="#D0D0D0" transform="translate(0,0)"/>
</svg>
