<svg width="162" height="56" viewBox="0 0 162 56" fill="none" xmlns="http://www.w3.org/2000/svg">
<path d="M55.27 23.196C56.243 24.186 56.243 25.79 55.27 26.779L45.083 37.141C44.9302 37.2978 44.7476 37.4224 44.5458 37.5075C44.3441 37.5926 44.1274 37.6364 43.9085 37.6364C43.6896 37.6364 43.4729 37.5926 43.2711 37.5075C43.0694 37.4224 42.8868 37.2978 42.734 37.141L30.85 25.052C30.383 24.577 30.12 23.932 30.12 23.26V1.693C30.12 0.188003 31.909 -0.565997 32.955 0.499003L55.269 23.197L55.27 23.196ZM10.301 36.504C10.5302 36.7391 10.8041 36.9259 11.1066 37.0535C11.4092 37.1811 11.7342 37.2468 12.0625 37.2468C12.3908 37.2468 12.7158 37.1811 13.0184 37.0535C13.3209 36.9259 13.5948 36.7391 13.824 36.504L25.114 25.019C25.581 24.544 25.843 23.899 25.843 23.227V1.713C25.843 0.208003 24.054 -0.545997 23.008 0.518003L0.729994 23.183C-0.243006 24.173 -0.243006 25.777 0.729994 26.767L10.301 36.504Z" fill="#3C52D9"/>
<path d="M25.7076 31.1439L16.6786 40.1729C15.4684 41.3832 15.4684 43.3454 16.6786 44.5556L25.8144 53.6914C27.0247 54.9016 28.9868 54.9016 30.1971 53.6914L39.2261 44.6624C40.4363 43.4521 40.4363 41.4899 39.2261 40.2797L30.0903 31.1439C28.8801 29.9337 26.9179 29.9337 25.7076 31.1439Z" fill="#2EF2FF"/>
<path d="M65.5 38V14.7273H75.5909C77.3636 14.7273 78.8523 14.9659 80.0568 15.4432C81.2689 15.9205 82.1818 16.5947 82.7955 17.4659C83.4167 18.3371 83.7273 19.3636 83.7273 20.5455C83.7273 21.4015 83.5379 22.1818 83.1591 22.8864C82.7879 23.5909 82.2652 24.1818 81.5909 24.6591C80.9167 25.1288 80.1288 25.4545 79.2273 25.6364V25.8636C80.2273 25.9015 81.1364 26.1553 81.9545 26.625C82.7727 27.0871 83.4242 27.7273 83.9091 28.5455C84.3939 29.3561 84.6364 30.3106 84.6364 31.4091C84.6364 32.6818 84.303 33.8144 83.6364 34.8068C82.9773 35.7992 82.0379 36.5795 80.8182 37.1477C79.5985 37.7159 78.1439 38 76.4545 38H65.5ZM71.8182 32.9545H74.7727C75.8333 32.9545 76.6288 32.7576 77.1591 32.3636C77.6894 31.9621 77.9545 31.3712 77.9545 30.5909C77.9545 30.0455 77.8295 29.5833 77.5795 29.2045C77.3295 28.8258 76.9735 28.5379 76.5114 28.3409C76.0568 28.1439 75.5076 28.0455 74.8636 28.0455H71.8182V32.9545ZM71.8182 24.1364H74.4091C74.9621 24.1364 75.4508 24.0492 75.875 23.875C76.2992 23.7008 76.6288 23.4508 76.8636 23.125C77.1061 22.7917 77.2273 22.3864 77.2273 21.9091C77.2273 21.1894 76.9697 20.6402 76.4545 20.2614C75.9394 19.875 75.2879 19.6818 74.5 19.6818H71.8182V24.1364ZM100.648 14.7273H106.966V29.6364C106.966 31.4091 106.542 32.9432 105.693 34.2386C104.852 35.5265 103.678 36.5227 102.17 37.2273C100.663 37.9242 98.9129 38.2727 96.9205 38.2727C94.9129 38.2727 93.1553 37.9242 91.6477 37.2273C90.1402 36.5227 88.9659 35.5265 88.125 34.2386C87.2917 32.9432 86.875 31.4091 86.875 29.6364V14.7273H93.1932V29.0909C93.1932 29.8106 93.3523 30.4545 93.6705 31.0227C93.9886 31.5833 94.428 32.0227 94.9886 32.3409C95.5568 32.6591 96.2008 32.8182 96.9205 32.8182C97.6477 32.8182 98.2917 32.6591 98.8523 32.3409C99.4129 32.0227 99.8523 31.5833 100.17 31.0227C100.489 30.4545 100.648 29.8106 100.648 29.0909V14.7273ZM110.06 38V34.5L121.06 19.8182H110.105V14.7273H129.105V18.2273L118.105 32.9091H129.06V38H110.06ZM132.278 38V34.5L143.278 19.8182H132.324V14.7273H151.324V18.2273L140.324 32.9091H151.278V38H132.278Z" fill="#EAEDFF"/>
</svg>
